<?xml version="1.0" standalone="no"?>
<!DOCTYPE svg PUBLIC "-//W3C//DTD SVG 20010904//EN"
 "http://www.w3.org/TR/2001/REC-SVG-20010904/DTD/svg10.dtd">
<svg version="1.0" xmlns="http://www.w3.org/2000/svg"
 width="16pt" height="16pt" viewBox="0 0 367 367"
 preserveAspectRatio="xMidYMid meet">
<metadata>
Created by potrace 1.11, written by Peter Selinger 2001-2013
</metadata>
<g transform="translate(0.000000,367.000000) scale(0.100000,-0.100000)"
fill="white" stroke="none">
<path d="M1965 3264 c-88 -57 -183 -117 -211 -134 -29 -17 -57 -37 -64 -45 -7
-8 -16 -15 -21 -15 -5 0 -73 -42 -151 -93 -79 -51 -171 -110 -205 -132 l-63
-40 0 -292 0 -293 -296 0 -296 0 5 -607 c3 -335 7 -619 10 -633 33 -148 69
-232 143 -336 71 -100 165 -179 279 -234 149 -72 246 -93 435 -94 166 -1 200
2 299 29 135 35 262 107 361 205 148 147 213 306 235 570 2 19 4 358 4 752 l1
718 73 -46 c39 -26 98 -64 130 -85 32 -22 59 -39 61 -39 2 0 60 -36 128 -80
67 -44 138 -88 156 -99 l32 -20 0 292 0 292 -33 21 c-234 152 -848 544 -850
543 -1 0 -74 -47 -162 -105z m-128 -1499 c-4 -669 -5 -713 -23 -761 -45 -121
-119 -176 -245 -181 -169 -6 -264 74 -302 253 -12 55 -15 176 -16 607 l-1 537
92 60 c51 32 183 117 293 188 l200 128 3 -60 c2 -34 1 -380 -1 -771z"/>
</g>
</svg>
